<svg xmlns="http://www.w3.org/2000/svg" viewBox="0 0 400 280" preserveAspectRatio="xMidYMid slice">
  <defs>
    <linearGradient id="bg4" x1="0" y1="0" x2="0" y2="1">
      <stop offset="0%" stop-color="#fdf9ed"/>
      <stop offset="100%" stop-color="#f0e4c8"/>
    </linearGradient>
    <linearGradient id="bread4" x1="0" y1="0" x2="0" y2="1">
      <stop offset="0%" stop-color="#f0d186"/>
      <stop offset="100%" stop-color="#d4a463"/>
    </linearGradient>
    <linearGradient id="tray4" x1="0" y1="0" x2="0" y2="1">
      <stop offset="0%" stop-color="#8b5a2b"/>
      <stop offset="100%" stop-color="#5c3a1e"/>
    </linearGradient>
  </defs>
  <rect width="400" height="280" fill="url(#bg4)"/>
  <g opacity="0.07" stroke="#8b5a2b" stroke-width="1">
    <line x1="0" y1="40" x2="400" y2="40"/>
    <line x1="0" y1="80" x2="400" y2="80"/>
    <line x1="0" y1="120" x2="400" y2="120"/>
    <line x1="0" y1="160" x2="400" y2="160"/>
    <line x1="0" y1="200" x2="400" y2="200"/>
    <line x1="0" y1="240" x2="400" y2="240"/>
  </g>
  <ellipse cx="200" cy="220" rx="160" ry="22" fill="url(#tray4)"/>
  <ellipse cx="200" cy="215" rx="155" ry="18" fill="#a86a3d"/>
  <ellipse cx="140" cy="195" rx="40" ry="28" fill="url(#bread4)"/>
  <ellipse cx="200" cy="190" rx="45" ry="32" fill="url(#bread4)"/>
  <ellipse cx="265" cy="198" rx="38" ry="26" fill="url(#bread4)"/>
  <!-- cheese strands -->
  <g stroke="#fcd116" stroke-width="1.2" opacity="0.85">
    <line x1="115" y1="178" x2="120" y2="195"/>
    <line x1="125" y1="174" x2="130" y2="194"/>
    <line x1="135" y1="172" x2="140" y2="195"/>
    <line x1="145" y1="174" x2="150" y2="194"/>
    <line x1="155" y1="178" x2="160" y2="195"/>
    <line x1="170" y1="170" x2="175" y2="194"/>
    <line x1="180" y1="166" x2="185" y2="195"/>
    <line x1="190" y1="162" x2="195" y2="195"/>
    <line x1="200" y1="160" x2="205" y2="195"/>
    <line x1="210" y1="162" x2="215" y2="195"/>
    <line x1="220" y1="166" x2="225" y2="195"/>
    <line x1="230" y1="170" x2="235" y2="194"/>
    <line x1="245" y1="178" x2="250" y2="195"/>
    <line x1="255" y1="174" x2="260" y2="195"/>
    <line x1="265" y1="172" x2="270" y2="195"/>
    <line x1="275" y1="174" x2="280" y2="195"/>
    <line x1="285" y1="178" x2="290" y2="195"/>
  </g>
  <text x="200" y="55" text-anchor="middle" font-family="Georgia, serif" font-size="14" fill="#8b5a2b" opacity="0.55" font-style="italic">— placeholder photo —</text>
</svg>
